<?xml version="1.0" encoding="utf-8"?>
<!-- Generator: Adobe Illustrator 26.0.3, SVG Export Plug-In . SVG Version: 6.00 Build 0)  -->
<svg version="1.1" id="Layer_1" xmlns="http://www.w3.org/2000/svg" xmlns:xlink="http://www.w3.org/1999/xlink" x="0px" y="0px"
	 viewBox="0 0 1568.68 2943.15" style="enable-background:new 0 0 1568.68 2943.15;" xml:space="preserve">
<style type="text/css">
	.st0{opacity:0.1;}
	.st1{fill:#FAA181;}
	.st2{fill:#FFC599;}
	.st3{fill:#F26E4E;}
	.st4{fill:#0C0C11;}
	.st5{fill:#2B2A21;}
	.st6{fill:#3A392D;}
	.st7{fill:#D5CED8;}
	.st8{fill:#AFA798;}
	.st9{fill:#D8D6CE;}
	.st10{fill:#F0EAEC;}
	.st11{fill:#1D1D27;}
	.st12{fill:#C98211;}
	.st13{fill:#F2AF08;}
	.st14{fill:#FFC648;}
	.st15{fill:#363642;}
	.st16{fill:#FF9A92;}
	.st17{fill:#2D2D3A;}
	.st18{fill:#140015;}
	.st19{fill:#1D5893;}
	.st20{fill:#2B7CBF;}
	.st21{fill:#233E59;}
	.st22{fill:#0E3556;}
	.st23{fill:#E9E5D5;}
	.st24{fill:#376082;}
	.st25{fill:#457793;}
	.st26{fill:#BF8D00;}
	.st27{fill:#936900;}
	.st28{fill:#7C3505;}
	.st29{fill:#FCCACA;}
	.st30{fill:#FFFFFF;}
	.st31{fill:#559AC4;}
	.st32{fill:#001826;}
	.st33{fill:#160F13;}
	.st34{fill:#3F2F39;}
	.st35{fill:#C13A36;}
	.st36{fill:#F27F7C;}
	.st37{fill:#E8524A;}
	.st38{fill:#FFAD8D;}
	.st39{fill:#CE6C4E;}
	.st40{fill:#5086A3;}
</style>
<path class="st0" d="M1030.1,2890.74c471.13-48.54-50.4-393.6-785.21-234.11C-188.62,2750.72,39.94,2992.75,1030.1,2890.74z"/>
<g>
	<path class="st1" d="M880.63,2028.54c0.4,36.6-33.31,100.41-36.5,161.07c-3.18,60.65,23.02,323.6,21.87,374.66
		c-1.85,82.93,93.31,70.78,96.96-2.99c20.78-116.24,71.72-379.32,64.79-520.47"/>
	<path class="st2" d="M973.66,2485.36c-5.14,32.12-13.17,72.64-13.17,72.64c-19.74-8.97-44.8,10.82-57.53,29.65
		c-6.41-23.68-8.72-93.34-8.72-93.34C922.58,2500.35,962.35,2500.11,973.66,2485.36z"/>
	<path class="st1" d="M537.98,2014.85c-93.35,139.43-117.85,398.86-141.06,501.53c11.52,59.86,63.87,56.64,93.12,28.13
		c75.98-105.84,163.89-331.09,186.91-479.5"/>
	<path class="st1" d="M765.58,1219.26c-76.46,46.1-125.38,151.3-139.97,242.15c-11.21,69.75,103.31,181.99,191.66,194.81
		c88.34,12.82,205.4-60.53,230.16-130.57c24.76-70.03-3.04-229.07-63.34-281.04"/>
	<path class="st1" d="M1038.41,1476.75c42.61,130.7,2.95,473.73-18.53,574.76c-16.36,76.97-99.99,98.56-133.2,14.26
		c-33.21-84.3-91.75-424.04-76.05-490.02"/>
	<path class="st1" d="M631.6,1461.98c-42.67,66.62-111.52,452.65-104.9,549.44c6.63,97.15,72.9,142.68,139.13,60.92
		c78.51-96.92,189.07-422.46,193.37-467.61"/>
	<path class="st1" d="M586.62,851.68c-46.9,111.65,159.79,493.34,309.25,448.45c122.14-36.68,208.82-460.53,90.5-528.06
		C890.21,717.19,625.58,758.93,586.62,851.68z"/>
	<path class="st1" d="M704.47,657.58c28.37,21.61,42.84,82.13,26.86,107.96c-39.95,24.51-46.68,93.61,60.13,89.16
		c106.8-4.45,111.67-74.06,74.18-91.59c-31.92-14.93-38.08-96.58-24.32-111.27"/>
	<path class="st3" d="M823.55,674.63c-9.05,38.45-53.08,44.12-55.05,51.2c-6.51,23.47-24.5,56.21-42.89,50.67
		c21.69-23.13,7.23-79.56-3.28-100.92"/>
	<path class="st1" d="M396.92,2512.48c-7.48,28.46-87.56,113.33-103.41,158.36c-18.14,51.55,26.03,93.26,50.05,105.69
		c24.03,12.44,94.1-19.6,110.12-53.64c16.02-34.03,44.22-187.85,44.22-187.85"/>
	<path class="st2" d="M418.22,2445.62c-4.87,32.17-18.27,80.41-18.27,80.41c25.7-6.15,41.19,14.31,54.56,35.26
		c13.3-20.61,33.59-78.31,33.59-78.31C458.76,2485.83,424.5,2463.12,418.22,2445.62z"/>
</g>
<g>
	<path class="st4" d="M649.52,1373.29c-11.25,29.26-19.3,59.41-23.91,88.12c-11.21,69.75,103.31,181.99,191.66,194.81
		c88.34,12.82,205.4-60.53,230.16-130.57c7.47-21.13,10.16-50.35,8.61-82.3"/>
	<path class="st4" d="M601.62,1438.47c-75.37,151.18-91.89,465.35-117.42,545.03c-25.53,79.67-78.57,238.85-53.63,337.84
		c6.75,44.24,117.37,76.55,152.17,54.39c81.17-37.26,189.29-297.55,242.58-528.8c18.02-78.23,46.52-222.29,46.52-222.29"/>
	<path class="st4" d="M440.67,2302.42c-20.02,3-20.03,19.02-22.03,50.06c-2,31.03-12.28,47.21-3.64,79.66
		c28.67,45.47,105.75,51.48,123.77,41.46c18.02-10.01,22.03-28.03,32.04-52.05c10.01-24.03,33.03-64.07,18.02-74.09"/>
	<path class="st4" d="M1067.56,1472.75c50,195.54,8.82,472.1-2.2,583.82c-11.02,111.72-21.04,244.62-63.71,299.11
		c-40.42,31.98-126.29,26.64-157.94-1.28c-33.64-51.95-30.18-191.32-30.65-282.22c-0.48-90.9-15.66-330.99-12.83-405.76"/>
	<path class="st4" d="M844.07,2329.45c-18.94,7.15-12.57,28.83-8,59.58c4.56,30.76-2.08,42.73,13.19,72.63
		c37.58,38.44,117.21,28.1,132.72,14.52c15.51-13.58,12.63-32.04,17.37-57.63c4.73-25.6,15.82-69.59-0.97-76.22"/>
	<path class="st5" d="M857.89,1810.11c-20.44,118.08,0.15,448.66,26.38,525.56c18.46,19.46,59.15,28.66,103.68,16.79
		c56.95-42.92,124.69-651.02,84.92-834.34c-24.91,23.01-80.31,65.97-181.99,59.79c-101.68-6.17-236.51-88.97-236.51-88.97
		s-35.78,1.48-68.42,69.37c-35.4,81.66-55.16,382.22-73.94,435c-18.78,52.78-81.18,214.31-59.44,319.79
		c17.37,21.73,101.93,52.8,156.22-9.11c55.78-63.6,170.4-287.79,224.35-528.08c34.21-10.81,100.96-43.23,122.7-62.73
		C923.24,1768.19,861.86,1787.22,857.89,1810.11z"/>
	<path class="st6" d="M732.95,1544.65c-20.09,78.86-86.98,132-152.49,131.98c-37.32,237.16-18.45,414.47-35.77,437.75
		c-17.32,23.29-30.74-72.96-30.74-72.96c-26.94,69.86-60.63,252.67-30.03,276.33c30.6,23.65,88.48-3.11,176.96-173.87
		c99.97-192.94,128.91-313.26,135.86-351.46c-44.6,5.88-68.75-9.98-68.75-9.98c65.69-0.88,223.98-58.75,290.3-132.73
		c-14.84-32.56-13.16-61.21-13.16-61.21C920.13,1625.38,823.56,1597.55,732.95,1544.65z"/>
	<path class="st7" d="M561.38,1690.86c-2.2,0.98,8.01,32.52,18.6,34.6c11.41,2.24,47.17-44.95,46.61-47.46
		c-0.56-2.51-34.74,27.11-45.69,25.3C570.9,1701.65,563.58,1689.88,561.38,1690.86z"/>
	<path class="st4" d="M694.77,1541.12c-22.03,81.25-95.09,97.4-130.75,82.71c-4.57-38.3,4.36-127.2,60.82-137.14
		C681.31,1476.75,720.38,1484.2,694.77,1541.12z"/>
	<path class="st5" d="M679.25,1547.78c4.22,15.21-44.52,66.06-92.51,56.63c-4.54-10.28,1.78-54.87,16.66-61.43
		C618.28,1536.42,672.81,1524.61,679.25,1547.78z"/>
	<path class="st5" d="M446.36,2323.97c-20.21-6.6-17.71,19.15-19.19,46.05c-1.48,26.9-8.03,37.44-5.75,57.18
		c16.31,38.03,78.4,46.57,94.31,38.42c15.91-8.15,24.06-41.99,33.38-64.66c9.31-22.67,18.98-37.97,3.49-44.01
		C536.3,2361.61,469.14,2351.91,446.36,2323.97z"/>
	<path class="st5" d="M994.24,2360.85c14.99-1.45,8.26,17.69,2.25,43.95c-6.03,26.27-3.52,45.3-11.16,63.63
		c-23.29,26.29-87.36,15.98-100.39,3.75c-13.04-12.24-11.51-47.01-14.19-71.37c-2.69-24.36-7.74-47.95,8.81-49.47
		C897.23,2362.77,964.37,2377.57,994.24,2360.85z"/>
	<path class="st6" d="M575.51,1639.46c13.14,42.58,100.33,9.22,119.26-67.64C674.85,1619.94,603.18,1644.79,575.51,1639.46z"/>
	<path class="st4" d="M1018.29,1543.75c8.18,65.33,45.01,106.73,69.56,100.54c-0.06-34.44-3.04-111.95-16.31-130.86
		C1047.51,1525.91,1031.91,1534.96,1018.29,1543.75z"/>
	<path class="st5" d="M1037.06,1548.15c-10.42,11.15,12.62,79.16,41.57,79.15c5.21-9.32,6.02-84.16-7.08-91.55
		C1065.28,1532.23,1043.58,1541.17,1037.06,1548.15z"/>
	<path class="st6" d="M1082.19,1657.66c-16.67,39.57-75.9-22.19-63.42-87.29C1032.16,1622.42,1057.63,1658.08,1082.19,1657.66z"/>
	<path class="st6" d="M1007.08,1620.24c9.37,42.25,44.26,64.67,64.46,68.8c9.07,221.12-54.37,635.22-99.19,658.2
		c-44.83,22.99-70.32-112.81-78.6-302.2c-8.28-189.39-5.18-233.89,5.17-242.17c10.35-8.28,78.72-71.99,81.79-132.76"/>
	<path class="st6" d="M449.78,2334.83c-5.82-6.71-6.06,25.87-9,40.88c-2.93,15.01-14.47,49.59-8.64,61.06
		c5.83,11.47,32.2,28.98,58.71,26.39c20.48-9.83,21.52-75.03,30.83-84.86c9.31-9.83,15.52-21.07,1.55-20.55
		C509.26,2358.26,463.26,2350.35,449.78,2334.83z"/>
	<path class="st6" d="M910.53,2365.38c-16.4-4.94,0.69,26.56,1.66,41.82c0.97,15.26-2.23,53.15,5.18,65.14
		c7.41,11.99,52.7,9.52,62.33-3.91c9.63-13.42,4.89-67.37,11.4-79.24c6.52-11.88,9.63-24.44-3.71-20.27
		C959.72,2377.57,930.22,2371.31,910.53,2365.38z"/>
</g>
<g>
	<path class="st8" d="M1285.37,784.53c-28.91,20.95,82.23,136.75,102.59,105.37C1409.18,857.18,1326.21,754.94,1285.37,784.53z"/>
	<path class="st1" d="M976.68,778.98c31.09-38.61,217.04,134.09,288.51,168.57c47.88,23.09,24.17,108-31.02,117.93
		c-55.19,9.94-218.83-95.82-227.57-105.24"/>
	<path class="st1" d="M1193.49,945.04c-9.45-76.18,135.41-176.87,172.81-253.63c21.91-49.66,137.56-24.69,65.61,52.95
		c-35.2,118.66-130.37,314.86-207.49,321.14"/>
	<g>
		<path class="st1" d="M1390.98,620.11c22.48-17.83,59.12-35.27,78.97-28.37c21.88,7.6,37.81,82.19,27.73,117.69
			c-24.25,33.52-49.36,49.58-79.36,36.07"/>
		<path class="st3" d="M1430.34,613.69c9.85,25.48,7.62,72.6,0,88.27c25.45,2.74,32.4,14.72,43.8,20.78
			c21.5-1.61,18.51-50.71,4.26-79.73C1464.16,613.99,1441.06,612.31,1430.34,613.69z"/>
		<path class="st1" d="M1368.89,704.94c-7.8-29.5-2.19-79.61,10.51-96.61c23.57-31.55,13.19-67.17,27.65-76.05
			c10.67-6.56,35.65,32.86,17.03,77.25c20.29,26.19,13.76,71.76,6.47,83.39"/>
		<path class="st1" d="M1498.92,678.73c36.47,13.17,18.27,44.9-7.62,51.69c-20.47,5.37-47.34-12.65-4.94-24.98"/>
		<path class="st1" d="M1484.94,645.35c49.29,5.06,36.54,50.03,6.55,66.45c-23.72,12.99-62.62-1.04-13.85-29.46"/>
		<path class="st1" d="M1470.56,613.69c55.12,1.87,44.37,52.79,12.31,73.3c-25.37,16.23-69.62,3.6-17.62-31.66"/>
		<path class="st1" d="M1451.18,590.89c54.94-4.89,50.51,46.96,21.19,71.24c-23.18,19.22-65.37,13.56-21.36-29.26
			c6.1-5.93,11.01-16.16,11.01-16.16"/>
	</g>
	<path class="st9" d="M1163.64,873.82c15.4,11.96,34.15,19.19,34.15,19.19c18.63-42.43,67.92-82.61,87.58-108.48
		c-4.77,31.92,78.53,101.23,102.59,105.37c-21.47,64.17-103.22,169.39-141.52,181.98c-38.29,12.59-103.5-19.49-130.41-36.05"/>
	<path class="st10" d="M1283.71,800.9c-27.43,22.25-80.55,75.27-85.39,109.7c-4.83,34.43,3.1,73.48,3.1,73.48
		c-14.49-15.52-22.13-44.73-22.13-44.73c-10.98,32.83-21.88,75.78-21.88,75.78c15.55,19.67,56.51,30.03,79.8,22.27
		c23.29-7.76,83.35-67.72,109.74-160.35C1310.21,852.74,1290.96,822.5,1283.71,800.9z"/>
	<path class="st11" d="M1123.57,1040.29c21.75-20.68,60.52-125.81,59.75-154.01c2.89,0.73,9.98,4.76,9.98,4.76
		c11.55,18.44-12,133.56-46.74,161.2C1133.71,1049,1123.57,1040.29,1123.57,1040.29z"/>
	<path class="st12" d="M1009.46,763.22c45.78,3.53,115.3,69.13,133.49,84.26c18.19,15.13,32.59,16.06,36.09,38.3
		c3.5,22.24-30.66,149.53-46,161.18c-18.92,14.36-83.24-41.9-101.87-40.35"/>
	<path class="st13" d="M1023.48,770.07c24.15-1.12,112.49,80.51,142.76,91.37c17.85,40.36-15.15,131.26-28.53,150.23
		c-28.91-11.29-90.38-36.74-110.08-147.13C1012.83,781.65,1023.48,770.07,1023.48,770.07z"/>
	<path class="st13" d="M1124.79,996.11c-1.97,11.98-7.24,33.51-7.24,33.51c12.8,1.53,28.38-16.36,42.92-72.74"/>
	<path class="st14" d="M1032.47,781.68c13.31-17.73,99.68,63.75,119.19,72.71c-4.18,35.1-18.81,83.56-33.19,84.97
		C1071.71,917.92,1014.63,805.44,1032.47,781.68z"/>
	<path class="st14" d="M1168.55,862.03c12.58,6.07,6.37,80.79-28.28,107.4C1161,918.64,1154.51,855.25,1168.55,862.03z"/>
	<path class="st11" d="M1192.02,903.13c-4.92,40.45-1.48,124.18-22.86,158.79c13.2,6.63,34.55,10.32,34.55,10.32
		c16.17-19.88-5.28-133.79-6.09-182.24"/>
	<path class="st11" d="M1249.35,1070.79c0.41-19.06-28.96-64.5-37.61-108.69c14.16,28,43.56,56.39,65.29,89.35
		C1264.29,1066.14,1249.35,1070.79,1249.35,1070.79z"/>
	<path class="st11" d="M1197.15,891.2c3.52,28.45,23.13,72.61,105.43,134.27c6.92-4.48,17.9-21.38,17.9-21.38
		c-44.27-33.18-104.97-86.67-114.27-127.04C1200.06,882.15,1197.15,891.2,1197.15,891.2z"/>
	<path class="st11" d="M1337.3,981.72c9.57-9.88,16.26-23.67,16.26-23.67c-43.21-13.95-116.43-78.49-123.88-113.29
		c0,0-12.99,14.94-16.88,22.27C1219.47,892.85,1288.88,958.42,1337.3,981.72z"/>
	<path class="st11" d="M1367.94,933.58c-57.57-15.01-110.89-78.08-120.09-108.26c7.43-9.67,19-19.77,19-19.77
		c14.34,28.11,50.77,76.68,115.68,99.11C1382.53,904.66,1370.63,929.68,1367.94,933.58z"/>
	<path class="st15" d="M1270.5,812.27c-3.6-5.75-14.22,13.43-15.01,20.87c-0.79,7.44,35.3,68.43,80.51,82.34
		c4.32-3.16,10.02-25.01,10.02-25.01C1312.89,882.3,1284,833.82,1270.5,812.27z"/>
	<path class="st15" d="M1230.22,854.22c-4.66,3.49-14.88,19.29-14.88,19.29c12.94,22.63,51.75,73.43,92.5,88.59
		c5.05-6.97,12.64-18.22,12.64-18.22C1292.05,929.64,1241.86,883.33,1230.22,854.22z"/>
	<path class="st15" d="M1207.42,886.28c-4.75,7.53-7.08,14.9-7.08,14.9c5.82,35.71,49.76,85.77,76.69,98.96
		c7.91-3.1,13.93-18.43,13.93-18.43C1264.3,964.43,1222.26,924.16,1207.42,886.28z"/>
	<path class="st15" d="M1183.52,895.26c0.42-4.75,5.85-2.87,9.52,6.96c3.67,9.83-3.5,68.41-14.31,94.41
		c-8.67,5.98-18.26-9.54-18.26-9.54C1169.29,953.45,1182.49,906.93,1183.52,895.26z"/>
	<path class="st15" d="M1200.34,937.41c-2.89-16.91-9.06-0.04-9.57,24.69c-0.51,24.73-11.02,71.43,11.38,69.23
		C1218.71,1029.7,1201.39,943.57,1200.34,937.41z"/>
	<path class="st15" d="M1211.74,959.4c-3.61,2.55,15.5,67.01,27.92,75.81c14.23-1.81,15.81-10.87,15.81-10.87
		C1243.29,1004.42,1213.57,958.11,1211.74,959.4z"/>
	<path class="st2" d="M1376.15,685.11c-17.46,39.05-85.19,113.51-85.19,113.51c12.11,24.72,45.03,52.53,64.62,61.58
		c16.3-31.2,52.78-109.91,52.78-109.91C1374.59,719.08,1376.15,685.11,1376.15,685.11z"/>
	<path class="st2" d="M1407.97,536.76c-6.74,1.52-3.49,22.12-9.32,41.91c-5.82,19.79-14.75,27.98-19.02,41.35
		c-4.27,13.37-20.17,70.19,10.09,99.05c41.05,39.15,71.04,13.48,73.01,6.67c1.97-6.81-15.42-15.27-24.79-15.8
		c-13.46-0.76-25.72,5.34-25.72,5.34c13.38-28.06,21.4-78.79-0.94-104.79C1427.25,576.99,1420,534.04,1407.97,536.76z"/>
	<path class="st2" d="M1433.72,599.76c20.18-9.58,40.1-7.25,50.97,3.36c10.87,10.61,0.77,37.44-19.08,53.3
		c-19.85,15.86-31.48,11.39-31.88,3.88c-0.4-7.51,30.89-41.7,36.84-46.61C1463.31,614.98,1431.91,612.7,1433.72,599.76z"/>
	<path class="st2" d="M1496.84,625.24c0.19,14.75-17.85,44.24-48.51,50.65c-7.23,6.38,3.66,16.68,32.6-2.33
		C1509.87,654.55,1507.32,629.71,1496.84,625.24z"/>
	<path class="st2" d="M1508.68,660.76c-10.09,22.12-28.72,34.54-46.67,36.29c-7.58,7.49,0.48,18.82,30.75,3.49
		C1523.04,685.21,1515.48,659.98,1508.68,660.76z"/>
	<path class="st2" d="M1512.37,698.21c-6.02,5.43-19.99,21.54-38.23,21.15C1489.54,730.82,1524.98,710.4,1512.37,698.21z"/>
	<path class="st16" d="M1448.58,652.18c-5.94-1.29-15.37,8.71-12.6,14.32c2.77,5.61,19.58,1.53,19.76-3.26
		C1455.93,658.45,1453.09,653.16,1448.58,652.18z"/>
	<path class="st16" d="M1461.38,678.73c-5.65-2.27-18.45,4.33-15.56,9.89c2.12,4.06,19.05,4.78,20.03,0.08
		C1466.84,684,1465.66,680.44,1461.38,678.73z"/>
	<path class="st16" d="M1473.61,700.46c-5.65-2.27-18.45,4.34-15.56,9.89c2.12,4.06,19.05,4.78,20.03,0.08
		C1479.06,705.74,1477.89,702.18,1473.61,700.46z"/>
	<path class="st16" d="M1480.55,717.74c-4.18-2-13.04,3.64-11.11,8c1.41,3.19,11.2,4.89,13.5,2.06
		C1484.61,725.74,1483.71,719.25,1480.55,717.74z"/>
	<path class="st16" d="M1402.88,535.59c4.25,1.51,4.45,14.23,3.15,18.89c-1.29,4.66-6.84,4.2-8.59,2.1
		C1396.46,548.79,1400.97,536.85,1402.88,535.59z"/>
</g>
<g>
	<path class="st12" d="M1059.47,1007.82c1.96,37.82-2.91,121.32,2.91,215.93c5.83,94.6,26.99,228.25,17.98,249.99
		c-9.01,21.75-55.57,71.36-196.49,69.98c-140.92-1.38-242.02-84.22-303.59-84.76c1.32-67.56,37.69-181.18,38.93-196.62
		c1.24-15.44-12.3-134.7-27.02-183.32C574.9,964.71,554.81,849,571.08,822.95c15.58-24.94,115.46-62.02,133.8-58.79
		c19.79,1.38,18.91,39.96,77.99,46.42c64.02,7.01,96.17-25.21,90.44-65.38c53.57-4.37,122.37,5.75,145.76,19.54
		C1041.13,777.75,1009.46,881.36,1059.47,1007.82z"/>
	<path class="st13" d="M1071.54,1453.69c11.02,0.77,11.45,21.75,5.15,30.11c-34.92,54.93-217.49,83.72-356.76,17.37
		c-38.61-21.31-6.21-25.31-6.21-25.31C808.41,1523.55,1004.01,1533.65,1071.54,1453.69z"/>
	<path class="st13" d="M666.36,783.82c-4.83-13.57-82.28,20.18-86.52,43.09c-8.95,49.28,33.3,211.29,48.5,249.56
		c20.68,52.06,52.97,131.15,87.68,181.61c-9.36,11.46-49.23-48.9-67.3-72.19c-6.43,46.57-9.61,174.64-35.96,240.62
		c69.89,25.62,164.59,78.85,291.88,75.13c127.3-3.72,163-48.42,166.88-59.44c-4.66-42.85-24.25-231.66-28.9-296.09
		c-2.93-40.51,1.59-145.77,0.12-237.6c-0.87-54.21-22.99-113.7-11.61-132.53c-28.77-28.03-101.65-25.73-101.65-25.73
		C942.69,862.22,707.57,899.48,666.36,783.82z"/>
	<path class="st14" d="M591.76,818.94c-0.66,70.29,89.1,304.86,116.57,352.99c27.48,48.12,52.68,115.84,37.15,128.26
		c-40.37-1.55-75.33-47.93-75.33-47.93c14.71,54.51-8.06,131.05,3.11,164.73c70.51,66.76,309.66,111.78,376.41,9.31
		c0-52.73-39.5-162.38-34.4-339.52c3.58-124.13,14.29-259.45,8.88-309.98c-34.72-19.81-86.29-20.72-86.29-20.72
		c-24.8,119.11-218.4,132.32-279.57,32.18C630.53,788.27,591.76,818.94,591.76,818.94z"/>
	<path class="st13" d="M713.45,773.38c-4.66-10.17-38.09-1.3-37.78,11.15c0.53,21.1,46.21,89.25,154.72,69.68
		c97.54-17.6,95.82-97.97,88.57-106.68c-7.24-8.72-42.85-12.86-40.97,1.12c1.88,13.97,5.17,54.55-59.51,64.79
		C753.82,823.67,724.26,796.98,713.45,773.38z"/>
	<path class="st14" d="M886.88,755.88c-4.74,70.23-135.38,86.22-175.89,22.9c-30.02-2.88-6.52,58.99,72.11,71.22
		c63.45,9.87,107.91-19.3,118.75-49.17C917.46,757.82,888.05,738.48,886.88,755.88z"/>
	<path class="st14" d="M776.33,1501.84c-26.93-5.79,32.82,39.9,148.47,33.26c115.65-6.64,141.03-62.63,115.94-50.67
		C1015.65,1496.38,935.65,1536.11,776.33,1501.84z"/>
	<g>
		<g>
			<path class="st17" d="M794.4,978.11c-11.68-16.61-41.92-33.89-74.31-18.75c-32.4,15.14-19.13,146.65,24.6,170.9
				c43.73,24.25,72.95-19.59,67.51-41.22c-5.43-21.63-31.04-43.25-35.85-33.34c-4.82,9.91-3.4,31.98-23.31,34.53
				c-19.92,2.55-46.06-83.33-14.71-99.83c31.35-16.51,25.71,16.4,37.07,18C786.75,1010.01,804.12,991.93,794.4,978.11z"/>
			<path class="st17" d="M830.18,978.93c-24.87-5.04-41.19,33.55-30.54,71.31c7.83,27.78,23.83,51.63,47.03,42.25
				C880.36,1078.89,889.39,990.93,830.18,978.93z M827.36,1052.3c-15.11-17.91-2.73-49.05,13.74-48.66
				c14.43,0.33,23.72,21.52,17.28,43.93C853.8,1063.51,834.83,1061.15,827.36,1052.3z"/>
			<path class="st17" d="M884.29,1109.84c34.55,17.53,63.9-14.88,65.51-66.38c1.38-44.18-40.25-80.69-65.71-67.71
				c-23.74,12.1-18.46,35.99-15.85,60.04C872.3,1073.16,862.08,1098.58,884.29,1109.84z M890.61,1080.18
				c-5.88-9.54-7.58-55.14,1.34-57.84c17.75-5.39,34.78,10.68,29.02,42.87C918.67,1078.06,900.38,1096.09,890.61,1080.18z"/>
			<path class="st17" d="M918.3,943.34c-0.77,12.8,24.95,23.94,35.34,80.31c6.83,37.05-6.27,59.37,1.36,66.98
				c7.63,7.6,48.1,0.43,59.43-14.98c11.32-15.4,11.35-60.42,1.64-63.54c-9.7-3.12-8.23,19.29-12.62,28.89
				c-4.39,9.6-25.4,22.78-29.25,12.4c-3.85-10.38,7.63-91.95-6.05-107.75C954.46,929.83,918.74,936.07,918.3,943.34z"/>
		</g>
		<g>
			<path class="st17" d="M821.51,1189.99c7.93-3.51,41.36-5.08,44.68,2.37c3.31,7.45,9.33,25.81,1.33,33.96
				c-7.99,8.14-37.29,13.04-43.27-0.52C818.26,1212.24,816.36,1192.27,821.51,1189.99z"/>
			<path class="st17" d="M884.75,1186.4c-1.92,6.53,1.58,32.39,8.75,37.58c7.17,5.18,44.44-8.5,46.1-19.92
				c1.66-11.41,1.19-33.46-10.74-33.28C916.94,1170.97,887.18,1178.1,884.75,1186.4z"/>
			<path class="st17" d="M753.42,1151.1c31.92,56.73,191.94,34.97,234.34-45.13c21.33,1.29,28.51-13.6,9.02-19.87
				c-19.49-6.26-24.7,7.79-22.45,17.83c2.24,10.04-31.84,51.93-112.02,65.29c-80.18,13.35-103.55-14.94-100.54-23.67
				c3-8.73,1.26-34.44-21.28-14.83C717.94,1150.33,745.09,1156.66,753.42,1151.1z"/>
		</g>
	</g>
</g>
<g>
	<path class="st18" d="M274.89,2717.85c-28.81,26.62-23.29,129.49,20.19,146.07c39.68,15.13,84.42-5.92,112.19-30.43
		c42.19-37.23,59.77-89.13,62.73-96.45c7.75-19.16,27.02-35.35,35.94-58.82c6.44-16.92,8.01-103.1,1.43-109.44"/>
	<path class="st17" d="M266.16,2816.04c8.15,23.67,47.66,50.45,107.86,16.69c60.19-33.76,74.5-93.56,82.09-116.64
		c1.58,49.59-28.8,102.31-72.74,130.22C339.43,2874.22,276.64,2882.01,266.16,2816.04z"/>
	<path class="st18" d="M447.78,2577.82c14.23-27.71-51.52-69.64-68.06-34.06c-16.52,35.59-122.09,168.27-76.38,192.15
		C349.04,2759.77,417.09,2637.61,447.78,2577.82z"/>
	<path class="st17" d="M399.95,2533.42c5.75-4.27,39.65,8.79,34.24,21.12C428.78,2566.88,379.66,2548.47,399.95,2533.42z"/>
	<path class="st17" d="M384.59,2571.88c3.04,14.4-26.46,61.13-46.25,88.91c-19.79,27.79-32.35,52.89-17.07,58.4
		c23.75,8.57,67.31-86.61,78.68-114.81C411.31,2576.19,387.37,2569.13,384.59,2571.88z"/>
	<path class="st19" d="M501.65,2527.55c-11.73,17.81-25.45,41.91-44.66,44.2c-18.38,2.19-32.9,0.95-44.41,19.93
		c-11.52,18.98-54.52,107.51-67.23,123.23c-13.58,19.08-41.72,5.99-36.39-14.35c4.02-15.34,63.08-107.72,71.79-121.86
		c6.35-10.3,17.18-32.8,12.54-46.52c1.09-7.32,4.03-17.93,7.46-33.98c-10.14-9.78-21.66,5.73-28.68,31.6
		c-7.02,25.85-67.51,101.43-96.5,140.99c-28.99,39.58-35.34,130,9.7,162.42c26.97,19.41,107.51,13.34,147.64-67.97
		c30.78-62.35,54.06-156.89,69.12-175.27C520.31,2567.64,517.52,2530.83,501.65,2527.55z"/>
	<path class="st20" d="M500.79,2562.44c-8.41,28.82-45.97,43.5-58.17,42.91c-12.2-0.59-26.79,9.89-9.39,14.45
		c17.41,4.54,30.76,1.63,30.76,1.63c-23.36,41.47-44.73,105-61.98,132.63c-20.33,32.6-75.84,60.11-114.54,39.8
		c-39.42-20.68-25.62-91.84-8.65-119.83c19.01-31.35,77.28-95.69,80.29-103.04c3.16,7.1,6.95,8.61,11.75,1.73
		c2.78-4,0.67-20.33,2.59-36.22c1.91-15.88,7.99-33.64,16.06-34.93c7.83-1.25-2.88,17.08-2.03,29.66c0.86,12.75-8.8,41.6-23.91,66.3
		c-10.08,16.49-38.66,61.01-57.28,96.91c-13,25.07,26.18,49.5,44.13,21.51c11.71-18.26,29.32-51.28,39.66-71.59
		c23.26-45.73,31.5-70.76,52.53-67.63c31.15,4.63,45.84-17.12,51.93-31.29C500.64,2531.28,504.05,2551.25,500.79,2562.44z"/>
	<path class="st21" d="M376.49,2554.46c8.55,3.16,5.52,16.37-5.23,13.93C360.52,2565.94,366.11,2550.62,376.49,2554.46z"/>
	<path class="st22" d="M299.93,2686.64c8.54,3.17,5.51,16.38-5.23,13.92C283.95,2698.1,289.55,2682.79,299.93,2686.64z"/>
	<path class="st22" d="M323.6,2643.77c8.54,3.17,5.51,16.37-5.24,13.92C307.6,2655.25,313.2,2639.92,323.6,2643.77z"/>
	<path class="st22" d="M349.38,2603.22c8.56,3.17,5.51,16.38-5.24,13.93C333.41,2614.69,339,2599.37,349.38,2603.22z"/>
	<path class="st22" d="M428.88,2586.65c8.71,2.72,6.34,16.07-4.51,14.15C413.5,2598.94,418.31,2583.36,428.88,2586.65z"/>
	<path class="st22" d="M359.25,2719.37c8.71,2.7,6.33,16.05-4.51,14.14C343.86,2731.64,348.68,2716.04,359.25,2719.37z"/>
	<path class="st22" d="M384.68,2676.19c8.71,2.72,6.35,16.06-4.52,14.16C369.31,2688.45,374.12,2672.87,384.68,2676.19z"/>
	<path class="st22" d="M406.59,2631.65c8.71,2.72,6.34,16.05-4.52,14.16C391.21,2643.92,396.02,2628.32,406.59,2631.65z"/>
	<path class="st23" d="M422.64,2587.79c-17.08,14.59-64.93,18.57-75.07,17.76c-6.65,3.39-0.52,9.08-0.52,9.08
		c15.04,4.47,52.98,3.38,79.17-16.79C431.97,2591.44,426.92,2584.73,422.64,2587.79z"/>
	<path class="st23" d="M377.99,2565.91c-1.76,22.15,22.49,61.91,28.91,69.35c1.14,7.24-6.88,5.9-6.88,5.9
		c-12.15-9.06-33-39.31-32.04-72C369.73,2560.83,377.95,2560.7,377.99,2565.91z"/>
	<path class="st23" d="M399.9,2631.87c-17.53,14.04-66.21,16.25-76.51,15.04c-6.79,3.15-0.65,9.16-0.65,9.16
		c15.21,5.07,53.77,5.4,80.67-13.94C409.33,2635.92,404.3,2628.94,399.9,2631.87z"/>
	<path class="st23" d="M354.87,2608.08c-2.12,22.27,21.97,63.33,28.41,71.07c1.04,7.34-7.1,5.71-7.1,5.71
		c-12.21-9.6-32.97-40.92-31.53-73.87C346.54,2602.66,354.9,2602.83,354.87,2608.08z"/>
	<path class="st23" d="M375.86,2676.09c-17.38,13.2-66.09,13.48-76.42,11.89c-6.77,2.87-0.52,9.04-0.52,9.04
		c15.34,5.57,53.93,7.42,80.6-10.67C385.35,2680.46,380.21,2673.37,375.86,2676.09z"/>
	<path class="st23" d="M330.41,2650.84c-1.81,21.93,22.89,63.46,29.45,71.35c1.19,7.29-7,5.34-7,5.34
		c-12.37-9.95-33.61-41.72-32.65-74.22C322.02,2645.14,330.37,2645.64,330.41,2650.84z"/>
	<g>
		<path class="st23" d="M400.1,2570.61c13.76-10.19,55.13-17.67,62.44,9.13c7.31,26.83-8.87,50.22-26.81,45.43
			c-17.94-4.8-33.36-44.13-35.79-48.18c0.15-6.38,3.29-6.15,9.33-2.18c6.05,3.95,21.56,41.8,30.8,40.99
			c12.41-1.09,15.11-29.27,8.3-38.43c-6.83-9.17-38.71-4.64-42.7-0.88"/>
		<path class="st23" d="M396.93,2570.29c-9.13-3.91-75.27,6.05-106.04,29.62c-2.44,4.97,1.11,16.39,5.7,11.76
			c4.57-4.62,70.43-36.88,103.36-34.67"/>
		<path class="st23" d="M405.81,2569.18c-0.27-21.2-37.67-48.67-60.42-29.02c-22.73,19.64-13.93,39.46,5.42,31.92
			c19.37-7.54,39.37,4.21,47.29,3.56c7.91-0.67,3.59-5.71-6.08-12.3c-15.76-10.77-46.2,2.74-50.06-1.13
			c-3.89-3.86,11.81-21.55,29.44-18.22c12.7,2.38,24.45,16,24.58,27.61"/>
		<path class="st23" d="M404.12,2577.56c-3.35,9.07-0.62,43.3,42.59,70.58c6.1,3.62,1.3,13.42-7.13,9.73
			c-8.41-3.69-59.04-50.88-43.14-82.27C400.1,2570.61,404.12,2577.56,404.12,2577.56z"/>
		<path class="st23" d="M401.71,2562.13c7.48,0.58,19.91,19.9,4.65,19.55C391.13,2581.32,388.27,2561.08,401.71,2562.13z"/>
	</g>
</g>
<g>
	<path class="st18" d="M1125.28,2729.06c33.38,23.59,13.31,88.84-4.11,105.81c-33.7,32.86-99.52,21.41-142.79-17.1
		c-42.02-37.4-58.69-74.03-69.96-71.47c-11.27,2.56-41.5-27.77-47.98-40.29c-6.48-12.54-11.38-61.6-6.5-64.63"/>
	<path class="st17" d="M1138.08,2794.5c-6.68,20.2-41.64,53.98-106.21,29.6c-64.56-24.38-91.85-78.49-102.8-100.18
		c5.86,49.27,46.79,96.99,94.41,118.01C1071.1,2862.96,1131.4,2852.91,1138.08,2794.5z"/>
	<path class="st18" d="M918.39,2606.64c-16.33-23.87,46.01-65.09,65.26-34.3c19.24,30.79,134.77,142.17,91.06,167.23
		C1031.01,2764.63,953.63,2658.14,918.39,2606.64z"/>
	<path class="st17" d="M976.91,2588.79c-0.86,14.69,35.31,56.48,59.03,81c23.73,24.51,34.11,44.76,20.78,54.02
		c-23.86,16.56-74.68-74.4-90.13-100.58C951.14,2597.05,973.75,2586.48,976.91,2588.79z"/>
	<path class="st17" d="M958.81,2564.68c-6.33-3.36-36.69,11.53-29.5,22.92C936.5,2598.98,981.12,2576.53,958.81,2564.68z"/>
	<path class="st19" d="M854.72,2601.18c-6.54-17.23-2.35-36.31,10.88-40.89c0.76,18.39,17.32,43.79,43.19,43.28
		c18.52-0.38,32.88-1.7,45.83,14.51c12.95,16.21,62.69,92.66,76.58,105.84c15.02,16.14,42.05,2.16,35.15-15.76
		c-5.19-13.51-71.24-92.18-81.01-104.25c-7.12-8.78-25.5-38.65-21.18-51.6c2.16-8.53,23.98-4.8,33,17.97
		c9.01,22.75,93.9,87.94,125.86,121.35c31.98,33.42,32.48,99.62-9.1,125.82c-33.68,21.22-113.99,10.75-160.3-59.41
		c-9.34-14.15-18.66-29.43-27.65-44.56c-20.48-28.38-66.05-45.21-71.66-62.81C850.06,2637.33,852.82,2613.56,854.72,2601.18z"/>
	<path class="st20" d="M864.42,2598.57c10.62,25.32,49.2,35.64,61.32,34.15c12.12-1.48,27.48,6.84,10.48,12.29
		c-17,5.44-30.54,3.85-30.54,3.85c26.51,35.56,62.18,80.61,81.5,104.17c27.16,33.12,98.88,46.91,127.46,26.67
		c27.27-19.31,17.76-64.69-3.58-91.41c-21.39-26.79-101.19-86.63-104.76-93.03c-2.59,6.64-8.91,11.72-14.23,5.88
		c-3.08-3.39-0.04-23.61-3.19-37.78c-3.14-14.17-24.82-11.19-13.86-3.82c12.72,8.54,11.9,38.89,28.9,59.98
		c11.33,14.07,43.28,51.98,64.63,82.89c14.9,21.58-22.26,46.64-42.32,22.8c-13.1-15.54-33.21-43.93-45.09-61.43
		c-26.74-39.41-36.9-61.33-57.62-56.88c-30.69,6.6-47.02-11.87-54.18-24.16C862.15,2570.48,860.29,2588.74,864.42,2598.57z"/>
	<path class="st21" d="M987.7,2581.74c-8.28,3.51-4.23,15.19,6.29,12.15C1004.52,2590.84,997.75,2577.47,987.7,2581.74z"/>
	<path class="st21" d="M1074.28,2694.91c-8.27,3.51-4.22,15.19,6.29,12.15C1091.1,2704,1084.33,2690.63,1074.28,2694.91z"/>
	<path class="st22" d="M1047.36,2658.12c-8.27,3.52-4.22,15.17,6.31,12.14C1064.2,2667.22,1057.43,2653.84,1047.36,2658.12z"/>
	<path class="st22" d="M1018.51,2623.56c-8.29,3.53-4.22,15.2,6.3,12.15C1035.32,2632.67,1028.57,2619.3,1018.51,2623.56z"/>
	<path class="st22" d="M937.98,2614.81c-8.48,3.13-5.07,14.97,5.59,12.4C954.26,2624.68,948.26,2611.02,937.98,2614.81z"/>
	<path class="st22" d="M1017.48,2726.43c-8.47,3.12-5.06,18.08,5.59,15.51C1033.77,2739.4,1027.76,2722.61,1017.48,2726.43z"/>
	<path class="st22" d="M991.17,2691.91c-8.48,3.12-5.09,14.96,5.6,12.4C1007.45,2701.76,1001.44,2688.09,991.17,2691.91z"/>
	<path class="st22" d="M963.58,2652.28c-8.48,3.12-5.08,14.96,5.59,12.41C979.85,2662.15,973.86,2648.46,963.58,2652.28z"/>
	<path class="st23" d="M944.29,2615.35c18.15,11.82,66.16,11.7,76.2,10.17c6.9,2.54,1.22,8.14,1.22,8.14
		c-14.64,5.2-52.54,7.16-80.22-8.99C935.27,2619.37,939.79,2612.93,944.29,2615.35z"/>
	<path class="st23" d="M987.09,2592.17c3.48,19.82-17.61,57.54-23.44,64.75c-0.56,6.61,7.32,4.77,7.32,4.77
		c11.4-9.1,29.84-37.98,26.34-67.37C994.93,2586.95,986.73,2587.47,987.09,2592.17z"/>
	<path class="st23" d="M970.37,2653.31c18.58,11.3,67.27,9.51,77.45,7.61c7.01,2.32,1.35,8.2,1.35,8.2
		c-14.78,5.75-53.18,9.05-81.49-6.3C961.3,2657.69,965.76,2651.01,970.37,2653.31z"/>
	<path class="st23" d="M1013.42,2628.38c3.84,19.91-16.99,58.79-22.8,66.25c-0.47,6.69,7.52,4.59,7.52,4.59
		c11.42-9.59,29.68-39.44,25.69-69.02C1021.3,2622.84,1012.98,2623.65,1013.42,2628.38z"/>
	<path class="st23" d="M997.78,2691.31c18.35,10.54,66.92,7.01,77.1,4.78c6.97,2.06,1.22,8.1,1.22,8.1
		c-14.85,6.22-53.18,10.87-81.17-3.35C988.65,2695.97,993.23,2689.18,997.78,2691.31z"/>
	<path class="st23" d="M1041.12,2665.01c3.5,19.62-17.89,58.97-23.82,66.6c-0.62,6.66,7.4,4.27,7.4,4.27
		c11.56-9.94,30.26-40.21,26.78-69.43C1049.05,2659.23,1040.75,2660.33,1041.12,2665.01z"/>
	<g>
		<path class="st23" d="M965.42,2598.12c-14.5-8.11-56.32-11.65-61.54,13.07c-5.21,24.76,12.74,44.58,30.25,38.86
			c17.51-5.72,29.82-42.36,31.94-46.2c-0.65-5.74-3.76-5.29-9.47-1.24c-5.72,4.03-18.24,39.34-27.52,39.33
			c-12.45-0.01-17.33-25.2-11.25-33.99c6.09-8.79,38.23-7.19,42.5-4.11"/>
		<path class="st23" d="M968.55,2597.58c8.8-4.24,75.51-0.39,108.01,18.46c2.82,4.28,0.17,14.85-4.76,11.04
			c-4.93-3.81-73.08-27.77-105.73-23.22"/>
		<path class="st23" d="M959.62,2597.28c-1.38-19.12,33.76-46.79,57.97-30.85c24.18,15.93,16.96,34.47-2.92,29.19
			c-19.89-5.29-38.92,6.85-46.86,6.88c-7.94,0.01-4.02-4.87,5.1-11.56c14.88-10.93,46.27-1.11,49.82-4.91
			c3.58-3.78-13.45-18.51-30.76-14.14c-12.47,3.13-23.13,16.32-22.36,26.8"/>
		<path class="st23" d="M961.96,2604.7c4.04,7.91,3.98,38.98-36.98,66.92c-5.8,3.73-0.25,12.19,7.86,8.21
			c8.11-3.97,54.9-50.44,36.62-77.49C965.42,2598.12,961.96,2604.7,961.96,2604.7z"/>
		<path class="st23" d="M963.16,2590.6c-7.41,1.1-18.3,19.48-3.12,17.98C975.2,2607.08,976.48,2588.61,963.16,2590.6z"/>
	</g>
</g>
<g>
	<path class="st8" d="M445.79,1315.62c18.23,30.7,132.82-57.35,118.23-91.79C549.44,1189.39,420.05,1272.26,445.79,1315.62z"/>
	<path class="st1" d="M578.61,843.55c-29.97-5.21-42.18,22.08-69.7,51.13c-57.14,60.32-153.38,132.83-160.04,194.85
		c-4.75,44.26,61.72,89.93,103.74,59.12c45.7-33.49,98.52-88.03,127.37-103.2"/>
	<path class="st1" d="M470.79,1069.81c56.03,42.12,118.74,262.51,153.95,310.3c11.95,31.15-36.3,81.86-69.62,47.25
		c-62.83-82.88-214.66-243.59-205.96-342.32"/>
	<path class="st9" d="M424.06,965.65c-37.13,29.3-85.05,83.73-88.36,128.65c-6.21,84.35,90.09,195.09,110.09,221.32
		c4.01-39.68,95.07-89.35,118.23-91.79c-14.86-27.59-35.31-88.13-49.8-107.79c21.73-11.64,31.05-26.39,31.05-26.39"/>
	<path class="st12" d="M577.34,817.6c-45,19.65-116.67,109.05-136.85,123.02c-20.18,13.97-26.39,17.85-24.06,34.15
		c2.33,16.3,88.49,121.86,119.54,129.62c23.29,0,40.36-45.79,76.84-52.78"/>
	<path class="st13" d="M514.39,1062.69c13.54,19.22,29.63,28.17,29.63,28.17c-10.73,7.15-40.78-10.26-79.22-53.99"/>
	<path class="st13" d="M579.23,824.94c-30.54,15.6-133.53,119.98-154.76,133.36c-8.04,29.67,56.39,113.19,100.63,114.13
		c29.61-11.55,62.1-68.15,70.63-148.88C604.27,842.82,579.23,824.94,579.23,824.94z"/>
	<path class="st14" d="M583.17,826.11c-57.69,26.71-121.61,110.55-140.16,121.37c7.57,34.54,52.14,91.46,66.6,91.46
		C554.07,1013.06,602.71,903.15,583.17,826.11z"/>
	<path class="st14" d="M427.35,956.3c-10.12,9.62,30.81,84.95,71.94,99.7C464.04,1013.98,438.66,945.55,427.35,956.3z"/>
	<path class="st10" d="M415.96,986.85c-28.72,24.17-62.33,62.71-67.06,98.14c-4.48,33.58,54.24,142.05,111.77,189.4
		c38.25-38.42,86.16-53.56,86.16-53.56c-8.68-29.21-30.65-86.33-47.54-99.44c-16.89-13.11-78.21-28.98-78.21-28.98
		c24.84-5.86,72.19,11.99,72.19,11.99c7.76-4.66,7.76-4.66,7.76-4.66C474.39,1081.37,429.52,1009.66,415.96,986.85z"/>
	<path class="st11" d="M402.41,984.55c9.36,28.51,91.82,116.74,117.62,128.14c-3.7,2.08-5.8,3.35-5.8,3.35
		c-21.61,2.53-120.06-69.29-130.15-112.52C392.51,993.29,402.41,984.55,402.41,984.55z"/>
	<path class="st11" d="M493.27,1104.4c-36.64-17.83-106.73-39.76-132.49-71.25c-10.57,10.32-16.36,29.04-16.36,29.04
		c13.53,21.77,113.37,36.75,159.44,51.77"/>
	<path class="st11" d="M335.41,1102.99c17.88,6.6,64.07-8.55,108.67-2.34c-31.08,4.27-65.54,27.63-103.79,37.45
		C335.41,1126.05,335.41,1102.99,335.41,1102.99z"/>
	<path class="st11" d="M510.64,1111.95c-28.04-5.94-75.34-1.89-160.43,55.84c1.98,7.99,10.34,23.15,10.34,23.15
		c45.79-31.04,118.65-69.25,159.84-64.89C516.94,1115.26,510.64,1111.95,510.64,1111.95z"/>
	<path class="st11" d="M374.76,1216.59c6.23,12.26,16.22,25.77,16.22,25.77c32.7-32.15,111-89.02,145.2-83.35
		c0,0-8.02-17.46-10.89-23.27C498.7,1133.64,412.55,1178.4,374.76,1216.59z"/>
	<path class="st11" d="M411.82,1271.92c32.94-49.54,101.97-90.95,134.01-88.48c4.38,10.44,10.12,23.68,10.12,23.68
		c-31.25,4.4-83.95,34.05-126.29,88.11C429.67,1295.23,414.63,1275.73,411.82,1271.92z"/>
	<path class="st15" d="M541.09,1209.07c6.64-1.4-2.09-19.72-8.8-23.02c-6.72-3.31-68.35,21.66-96.99,59.3
		c1.49,5.15,19.11,19.1,19.11,19.1C481.58,1233.14,516.2,1214.32,541.09,1209.07z"/>
	<path class="st15" d="M522.72,1158.71c-1.67-5.58-12.98-20.62-12.98-20.62c-25.7,4.36-84.24,28.64-112.51,61.67
		c4.81,7.14,14.59,18.11,14.59,18.11C434.98,1196.09,491.38,1159.61,522.72,1158.71z"/>
	<path class="st15" d="M500.74,1124.35c-5.43-7.05-11.55-11.78-11.55-11.78c-29.22-8.58-94.61,20.92-116.28,41.65
		c0.19,8.49,9.83,18.63,9.83,18.63C408.16,1153.78,460.07,1125.23,500.74,1124.35z"/>
	<path class="st15" d="M467.52,1072.42c3.6,3.13-5.35,8.59-15.47,5.79c-10.11-2.8-49.94-41.46-64.63-65.47
		c5.67-10.65,18.35-16.08,18.35-16.08C427.82,1023.55,458.68,1064.73,467.52,1072.42z"/>
	<path class="st15" d="M438.64,1092.36c16.82,3.31,3.25-8.45-19.69-17.71c-22.92-9.27-55.8-44.93-67.25-17.32
		C342.96,1078.44,432.51,1091.16,438.64,1092.36z"/>
	<path class="st15" d="M444.68,1099.12c-1.15-4.26-80.45-0.35-92.98,8.28c-3.21,13.98,8.8,20.96,8.8,20.96
		C383.4,1123.78,445.26,1101.27,444.68,1099.12z"/>
	<g>
		<path class="st1" d="M564.53,1530.54c-9.91-9.27-25.98-45.54-17.51-54.38c7.96-8.3,25.21,14.08,25.21,14.08
			c8.72,11.9,12.48,29.31,12.48,29.31"/>
		<path class="st1" d="M616.65,1367.1c2.67,4.71,69.98,44.93,89.47,80.12c11.77,21.26-104.56,83.26-126.14,61.07
			c-13.69-14.08-25.29-83.33-25.29-83.33"/>
		<path class="st1" d="M705.47,1446.09c13.39,20.71,35.62,109.69,28.51,118.47c-17.06,21.07-42-76.82-52.67-87.8"/>
		<path class="st1" d="M690.25,1466.16c4.1,10.12-2.13,46.93-8.49,54.64c-6.36,7.71-32.66,14.79-36.5,2.56
			c-3.84-12.22-6.49-30.68-6.49-30.68"/>
		<path class="st1" d="M663.45,1480.69c2.88,10.54-5.9,45-13.12,51.91c-7.22,6.91-34.17,10.86-36.54-1.74
			c-2.38-12.59-2.85-31.24-2.85-31.24"/>
		<path class="st1" d="M631.81,1484.42c3.25,10.43-4.32,45.17-11.29,52.33c-6.98,7.16-32.68,9.13-35.5-3.37
			c-2.81-12.5-5.03-28.21-5.03-28.21"/>
		<path class="st1" d="M602.32,1489.54c2.53,9.36-5.37,39.91-11.8,46.02c-6.43,6.11-17.95,2.37-24-2.79
			c-11.28-9.61-18.27-31.43-18.27-31.43"/>
		<path class="st1" d="M571.25,1492.04c2.48,5.63,3,7.19,3,7.19c-2.84,2.59-6.2,10.42-6.33,13.79"/>
	</g>
	<path class="st2" d="M554.7,1235.62c24.46,45.99,53.77,124.53,58.11,134.15c4.34,9.62-23.32,34.89-38.61,29.47
		c-15.3-5.42-89.79-111.28-89.79-111.28C510.07,1251.73,548.66,1235.67,554.7,1235.62z"/>
	<path class="st2" d="M610.93,1371.56c8.81,1.55,74.48,53.46,87.66,70.46c13.18,17,37.2,101.47,34.1,118.15
		c-3.11,16.69-20.18-24.35-34.15-73.49c1.16-17.71-2.67-28.04-6.96-28.33c-5.33-0.37-1.95,60.17-22.73,62.24
		c2.14-18.06,7.49-52.09-4.82-49.68c-9.34,1.83,3.28,53.55-25.24,62.1c4.99-23.76,6.15-58.63-6.19-56.26
		c-6.03,1.16-1.76,53.21-19.33,57.82c-12.89,3.38,7.12-53.88-8.65-53.88c-10.87,0,0.02,45.14-17.85,49.85
		c-6.77,1.78-6.4-12.82-4.01-23.74c5.94-27.13-23.29-75.99-6.92-106.8"/>
	<path class="st16" d="M732.95,1544.65c-1.34-1.4-10.8,0.8-11.55,4.19c-0.75,3.38,4.81,15.92,10.12,15.16
		C736.56,1563.28,734.29,1546.06,732.95,1544.65z"/>
	<path class="st3" d="M547.03,1476.16c9.32,2,24.12,30.66,25.4,36.85c1.69-11.18,0-20.88-3.03-26.15
		C553.25,1467.76,547.03,1476.16,547.03,1476.16z"/>
</g>
<g>
	<path class="st12" d="M559.92,57.89c-21.12-23.09-67.73-0.42-55.11,30.17C517.43,118.63,573.48,74.39,559.92,57.89z"/>
	<path class="st13" d="M527.95,49.68c12.71-4.01,27.47,7.03,5.92,17.19C512.31,77.02,503.3,57.45,527.95,49.68z"/>
	<path class="st24" d="M426.43,439.24c0,0-117.89,177.14-71.67,253.36c26.48,43.66,74.52-37.83,290.25-34.8
		c163.56-205.8-50-355.42-50-355.42"/>
	<path class="st25" d="M415.44,471.09c-62.04,78.24-79.77,180.96-58.39,213.22C351.6,651.61,389.18,508.17,415.44,471.09z"/>
	<path class="st26" d="M441,476.2c-57.43,71.15-81.46,181.02-67.73,209.01c13.73,27.98,125.15-45.87,246.32-30.93
		c121.17,14.94-98.94-177.9-107.5-177.21"/>
	<path class="st27" d="M437.91,476.51c-99.23,155.41-10.7,201.19,134.88,154.58c145.6-46.61-39.6-119.79-39.6-119.79"/>
	<path class="st2" d="M934.94,365.38c12.29-2.52,32.54-45.11,65.12-26.97c20,11.11,17.34,93.71-31.71,108.11
		c-20.47,6.02-35.81-22.36-35.97-23.19"/>
	<path class="st1" d="M957.03,401.97c-1.43-31.65,25.77-47.28,37.97-52.08c-15.03,21.92-18.12,75.58-14.51,84.74"/>
	<g>
		<g>
			<path class="st1" d="M885.7,199.4c79.46,71.67,90.93,193.13,99.37,219.97c44.37,141.4-59.26,249.28-146.43,266.46
				c-157.65,31.07-353.42-67.98-383.31-215.62C389.49,144.64,753.06,63.86,885.7,199.4z"/>
		</g>
	</g>
	<path class="st1" d="M525.47,529.22c-20.03-8.7-89.3-42.61-111.01-3.01c-16.65,30.35,46.24,101.02,97.8,94.8
		c26.52-3.2,30.98-40.47,30.76-41.41"/>
	<path class="st2" d="M560.55,420.36c-2.92,97.32,95.37,301.53,300.87,244.88c85.58-23.59,163.12-154.3,111.16-265.27
		c-8.92-19.04-2.87-51.18-40.7-110.98c-17.34-0.99-43.37-15.06-43.37-15.06c17.12,53.21,3.61,57.66-9.15,61.91
		c-12.76,4.24-70.86-31.14-89.23-58.68c-6.12,55.24-43.79,72.94-63.02,73.84c-19.22,0.9-30.89-26.86-34.45-56.21
		C632.55,313.21,561.46,390,560.55,420.36z"/>
	<path class="st28" d="M868.89,428.33c-12.55-12.56-18.39-106.75,36.04-115.81c50.69-8.44,68.7,58.67,64.53,82.05
		C961.41,439.68,893.45,452.91,868.89,428.33z"/>
	<path class="st29" d="M869.51,430.06c-11.79-11.8-16.97-98.95,34.01-108.46c44.6-8.32,63.73,55.41,59.56,77.33
		C954.85,442.27,892.58,453.16,869.51,430.06z"/>
	<path class="st30" d="M869.51,430.06c-11.16-11.16-20.24-95.06,22.97-102.09c48.41-7.87,72.42,56.54,65.28,80.07
		C947.9,440.59,891.32,451.91,869.51,430.06z"/>
	<path class="st31" d="M886.17,337.14c49.42-19.47,78.06,69.67,56.42,91.36c-15.96,12.12-49.44,19.47-63.89,6.72
		C863.84,422.1,852.06,350.58,886.17,337.14z"/>
	<path class="st28" d="M865.22,234.34c-10.16,1.76-26.95,36.92-18.06,33.33c43.25-17.49,60.75-3.97,62.02-9.16
		C911.82,247.79,878.05,232.11,865.22,234.34z"/>
	<path class="st28" d="M621.34,296.48c11.52-6.08,43.35,2.72,45.15,10.03c1.82,7.32-41.44,3.49-87.29,54.2
		C574.78,339.98,609.38,302.8,621.34,296.48z"/>
	<path class="st32" d="M890.25,355.75c48.45-13.63,71.75,76.1,24.61,82.66C867.73,444.98,858.9,364.57,890.25,355.75z"/>
	<path class="st30" d="M951.75,373.22c-9.26-9.02-31.23,11.43-26.03,20.71C930.9,403.2,965.82,386.89,951.75,373.22z"/>
	<g>
		<path class="st28" d="M747.69,463.05c7.52-17.72-28.32-110.86-98.29-96.33c-62.27,12.93-58.2,102.74-38,120.68
			C648.01,519.93,732.99,497.71,747.69,463.05z"/>
		<path class="st29" d="M748.29,462.69c6.8-16.03-25.37-99.54-88.74-86.61c-63.39,12.94-52.9,92.42-34.63,108.65
			C658.06,514.17,734.97,494.07,748.29,462.69z"/>
		<path class="st30" d="M737.36,468.15c10.47-19.12-19.86-97.36-78.38-85.42c-58.52,11.95-44.45,86-27.56,100.99
			C662.01,510.89,722.23,495.75,737.36,468.15z"/>
		<path class="st31" d="M655.35,391.99c46-13.1,90.22,70.35,62.82,95.86c-25.8,15.09-70.31,15.66-81.21,5.11
			C626.05,482.41,605.44,406.2,655.35,391.99z"/>
		<path class="st32" d="M654.07,414.57c37.61-17.15,81.9,70.64,31.66,85.61C635.49,515.15,615.31,432.24,654.07,414.57z"/>
		<path class="st30" d="M726.21,435.24c-9.86-9.59-33.21,12.16-27.69,22.03C704.03,467.14,741.16,449.79,726.21,435.24z"/>
		<path class="st30" d="M654.68,463.31c9.44-4.97,14.01,12.87,6.62,16.81C653.92,484.07,645.23,468.28,654.68,463.31z"/>
	</g>
	<path class="st30" d="M889.86,403.53c9.44-4.97,14.01,12.87,6.62,16.81C889.09,424.27,880.41,408.49,889.86,403.53z"/>
	<path class="st33" d="M553.03,330.87c-50.5,55.1-23.32,164.19,12.1,223.28c-16.88,10.19-29.06,4.91-29.06,4.91
		c-36.99-51.62-91.8-54.92-91.8-54.92c-30.71-21.91-26.89-65.14-15.31-108.08"/>
	<path class="st34" d="M536.74,355.77c-24.44,51.43,6.88,144.49,35.79,176.45c-32.19-9.93-65.28-52.3-71.46-74.65
		c4.94,31.81,18.38,48.4,18.38,48.4c-29.52-10.26-55.34-40.25-55.34-40.25C486.84,399.27,536.74,355.77,536.74,355.77z"/>
	<path class="st33" d="M844.09,219.32c86.53-21.39,160.66,41.17,150.04,62.74c-10.62,21.56-145.79-51.93-192.73-66.79
		c111.12,30.07,88.79,86.67,75.07,95.55c-13.73,8.89-110.36-88.59-110.36-88.59S759.35,323,727.03,333.59
		c-32.32,10.6-33.75-70.5-24.73-93.17c-92.66,29.81-142.47-94.39-27.16-133.26c115.33-38.86,256.46,32.93,186.38,86.37"/>
	<path class="st34" d="M646.92,178.6c30.68,3.34,59.75,29.07,59.75,29.07c7.59-27.51-15.24-53.98-15.24-53.98
		c32.37,6.59,49.82,55.9,49.82,55.9c19.93,0.88,67.95-7.67,67.95-7.67c-7.55-52.61-24.94-52.87-33.64-60.51
		c31.45,4.04,52.84,47.34,67.49,65.07c-2.09-62.08-55.82-122.62-147.6-77.89c30.38,4.98,50.42,25.12,50.42,25.12
		c-32.15-20.14-70.63-23.16-94.81,0.96"/>
	<path class="st34" d="M745.51,244.93c3.05,45.26-14.48,84.27-32.19,83.25c-17.64-16.54-15.67-58.18,0.53-80.98"/>
	<path class="st33" d="M843.09,242.4c58.46,15.68,75.62,50.52,72.54,59.99c15.99-23.02,10.28-63.46-68.82-74.43"/>
	<path class="st33" d="M760.03,232.45c36.52,6.49,48.54,70.76,42.84,95.25c18.97-27.92,19.48-80.01-36.48-101.2"/>
	<g>
		<path class="st1" d="M715.24,554.35c-13.29,12.27,5.27,19.34,25.65,13.28C731.84,563.68,730.49,540.26,715.24,554.35z"/>
		<path class="st1" d="M932.37,522.55c12.82,12.77,1.32,18.04-19.77,15.34C920.89,532.54,920.69,510.9,932.37,522.55z"/>
		<path class="st35" d="M723.48,559c-10.76,8,11.08,15.51,62.76,7.66c-26.56,2.21-46.96,1.93-54.4-2.98
			C725.77,559.68,726.25,556.94,723.48,559z"/>
		<path class="st35" d="M897.04,543.04c10.87-1.65,21.05-6.96,23.65-12.85c1.63-3.69,3.67-5.88,5.8-3.47
			c5.1,5.78-3.54,11.4-28.8,17.94"/>
		<path class="st36" d="M859.17,560.43l-99.88,9.24c0,0,61.73,17.24,91.51,11.44c29.79-5.8,44.11-22.32,59.91-40.35
			C898.86,547.34,871.52,556.97,859.17,560.43z"/>
		<path class="st37" d="M857.08,547.79c-11.35,6.82-15.83-1.54-35.89,4.23c-20.04,5.75-58.42,19.67-83.88,14.79
			c85.78,8.48,151.41-9.3,176.31-28.52C892.26,545.63,877.82,535.34,857.08,547.79z"/>
	</g>
	<g>
		<path class="st38" d="M846.55,474.55c10.34,0.7,11.86,5.33,23.05,6.75c14.89,1.89,6.92,13.1-7.6,17.47
			c-14.53,4.36-29.85,8.84-44.94,10.5c-15.1,1.66-12.59-10.62-1.78-16.3C823.33,488.74,834.31,473.7,846.55,474.55z"/>
		<path class="st39" d="M857.47,487.86c1.84-3.57,18.65-4.17,17.53-0.47C873.09,493.76,853.74,495.09,857.47,487.86z"/>
		<path class="st38" d="M798.76,477.02c-12.72,12.64-9.59,35.96,15.59,32.23c8.01-0.38-1.92-6.54-1.92-6.54
			C799.5,501.23,797.44,494.11,798.76,477.02z"/>
		<path class="st39" d="M827.32,495.06c-3.88-2.64-20.42,6-17.43,8.97C814.62,508.71,834.04,499.64,827.32,495.06z"/>
	</g>
	<path class="st3" d="M508.09,555.06c-38.48-24.93-74.88-23.38-84.1-4.65c22.28-0.83,64.73,11.14,68.91,21.73
		c-7.7,17.69,14.78,24.39,23.78,20.85C487.17,580.16,508.09,555.06,508.09,555.06z"/>
	<path class="st2" d="M499.75,536.16c-22.38-24.99-57.8-41.6-80.71-16.64c-6.6,10.83-2.2,18.49-2.2,18.49
		C422.15,525.84,462.11,522.59,499.75,536.16z"/>
	<path class="st34" d="M917.48,227.41c47.33,1.76,79.21,37.96,67.66,53.41c-49.51-33.69-93.2-48.72-112.88-49.92
		c37.25,8.87,47.95,41.66,40.27,53.59c-3.35-25.97-41.43-47.19-61.64-52.51c31.38,26.73,33.01,54.26,23.09,64.96
		c-15.71-17.47-88.08-73.51-88.08-73.51c31.16-2.44,69.29,35.9,69.29,35.9c-12.89-22.79-29.22-41.72-29.22-41.72
		C849.28,218.92,917.48,227.41,917.48,227.41z"/>
	<path class="st24" d="M426.41,495.5c32.69-130.56,328.76-303.12,511.46-269.05c5.06-46.83-139.62-270.95-371.28-175.03
		C334.94,147.35,356.55,375.23,426.41,495.5z M727.7,122.54c92.78-25.08,132.69,57.52,106.11,60.99
		c-93.97,12.26-141.27,41.81-158.5,45.78C658.07,233.28,642.63,145.53,727.7,122.54z"/>
	<path class="st25" d="M548.59,62.36c-117.92,57.45-122.92,202.08-85.07,291.84c31.89-41.66,152.9-105.45,196.43-123.84
		c-27.21-68.24,32.65-109.33,67.04-119.24c34.4-9.91,109,3.74,126.69,62.49c25.49-6.12,60.1,3.15,60.1,3.15
		C852.21,61.78,720.48-21.38,548.59,62.36z"/>
	<path class="st13" d="M682.45,226.99c42.55-28.76,113.86-62.31,137.72-56.51c11.29,2.74,14.77,43.87,1.17,47.1
		c-52.82,10.62-118.29,45.13-118.29,45.13c-8,3.28-13.13-6.08-13.13-6.08"/>
	<path class="st14" d="M817.45,170.38c10.31-0.04,15.76,36.56,4.35,39.1C810.37,212.01,809.33,170.42,817.45,170.38z"/>
	<path class="st25" d="M684.68,226.13c38.89-29.19,111.45-57.5,121.16-54.3c9.69,3.19,16.77,31.59,6.73,35.56
		c-10.05,3.96-75.2,27.3-118.5,50.41c-54.7,22.48-160.01,78.18-223.17,147.75c-8.34-10.55-14.34-28.15-1.58-45.26
		C482.09,343.18,564.96,273.37,684.68,226.13z"/>
	<path class="st25" d="M835.28,187.28c32.08-5.21,78.15-2.92,86.44,2.16c8.28,5.09,11.62,27.93,8.23,28.34
		c-27.67-8.14-85.91-3.3-97.21-1.63C848.47,203.91,835.28,187.28,835.28,187.28z"/>
	<path class="st40" d="M572.32,60.45c114.24-63.5,288.87-2.21,266.73,68.69c-94.68-64.12-221.23,4.51-192.85,94.58
		C540.08,271.11,447.39,129.88,572.32,60.45z"/>
	<path class="st40" d="M800.64,174.46c10.38,0.55,12.1,18.92,5.8,26.51c-6.3,7.59-72.81,22.65-76.46,13.41
		C726.33,205.14,784.02,173.57,800.64,174.46z"/>
</g>
</svg>
